<svg xmlns="http://www.w3.org/2000/svg" version="1.1" xmlns:xlink="http://www.w3.org/1999/xlink" xmlns:svgjs="http://svgjs.com/svgjs" width="1440" height="560" preserveAspectRatio="none" viewBox="0 0 1440 560">
    <g mask="url(&quot;#SvgjsMask1039&quot;)" fill="none">
        <rect width="1440" height="560" x="0" y="0" fill="rgba(249, 242, 210, 1)"></rect>
        <path d="M1440 0L807.37 0L1440 39.52z" fill="rgba(255, 255, 255, .1)"></path>
        <path d="M807.37 0L1440 39.52L1440 197.63000000000002L574.48 0z" fill="rgba(255, 255, 255, .075)"></path>
        <path d="M574.48 0L1440 197.63000000000002L1440 398.55L308.35 0z" fill="rgba(255, 255, 255, .05)"></path>
        <path d="M308.3499999999999 0L1440 398.55L1440 418.85L283.4199999999999 0z" fill="rgba(255, 255, 255, .025)"></path>
        <path d="M0 560L108.88 560L0 367.21000000000004z" fill="rgba(0, 0, 0, .1)"></path>
        <path d="M0 367.21000000000004L108.88 560L400.2 560L0 301.09000000000003z" fill="rgba(0, 0, 0, .075)"></path>
        <path d="M0 301.09000000000003L400.2 560L947.6099999999999 560L0 127.47000000000003z" fill="rgba(0, 0, 0, .05)"></path>
        <path d="M0 127.47000000000003L947.6099999999999 560L1157.6399999999999 560L0 48.50000000000003z" fill="rgba(0, 0, 0, .025)"></path>
    </g>
    <defs>
        <mask id="SvgjsMask1039">
            <rect width="1440" height="560" fill="#ffffff"></rect>
        </mask>
    </defs>
</svg>