<svg xmlns="http://www.w3.org/2000/svg" version="1.1" xmlns:xlink="http://www.w3.org/1999/xlink" xmlns:svgjs="http://svgjs.com/svgjs" width="1440" height="560" preserveAspectRatio="none" viewBox="0 0 1440 560">
    <g mask="url(&quot;#SvgjsMask1004&quot;)" fill="none">
        <rect width="1440" height="560" x="0" y="0" fill="rgba(45, 38, 6, 1)"></rect>
        <path d="M122.29 244.23a34.07 34.07 0 1 0-16.24-66.18z" fill="rgba(3, 94, 123, 1)"></path>
        <path d="M832.94 66.53 a12.84 12.84 0 1 0 25.68 0 a12.84 12.84 0 1 0 -25.68 0z" stroke="#d3b714"></path>
        <path d="M1418.11 196.21L1452.59 196.21L1452.59 245.95L1418.11 245.95z" fill="#d3b714"></path>
        <path d="M1076.83 49.05 a53.06 53.06 0 1 0 106.12 0 a53.06 53.06 0 1 0 -106.12 0z" stroke="rgba(227, 126, 125, 1)"></path>
        <path d="M974.88 168.32 a32.45 32.45 0 1 0 64.9 0 a32.45 32.45 0 1 0 -64.9 0z" stroke="#d3b714"></path>
        <path d="M39.54 522.06L69.92 522.06L69.92 549.96L39.54 549.96z" fill="rgba(3, 94, 123, 1)"></path>
        <path d="M309.89 100.01L330.66 100.01L330.66 126.21L309.89 126.21z" fill="rgba(3, 94, 123, 1)"></path>
        <path d="M743.65 459.18L784.53 459.18L784.53 500.06L743.65 500.06z" stroke="rgba(227, 126, 125, 1)"></path>
        <path d="M980.37 484.66L982.63 484.66L982.63 486.92L980.37 486.92z" stroke="rgba(3, 94, 123, 1)"></path>
        <path d="M1192.37 537.23a21.41 21.41 0 1 0-37.51-20.64z" fill="#d3b714"></path>
        <path d="M961.17 248.48L975.22 248.48L975.22 262.53L961.17 262.53z" fill="#d3b714"></path>
        <path d="M1309.96 457.78L1318.73 457.78L1318.73 466.55L1309.96 466.55z" stroke="rgba(227, 126, 125, 1)"></path>
        <path d="M810.11 376.03 a28.43 28.43 0 1 0 56.86 0 a28.43 28.43 0 1 0 -56.86 0z" fill="rgba(227, 126, 125, 1)"></path>
        <path d="M895.91 124.63L940.84 124.63L940.84 169.56L895.91 169.56z" stroke="rgba(3, 94, 123, 1)"></path>
        <path d="M1167.35 529.48L1173.39 529.48L1173.39 542.94L1167.35 542.94z" fill="rgba(3, 94, 123, 1)"></path>
        <path d="M940.55 65.11L975 65.11L975 99.56L940.55 99.56z" stroke="rgba(3, 94, 123, 1)"></path>
        <path d="M450.79 185.71a33.64 33.64 0 1 0 66.36-11.06z" fill="#d3b714"></path>
        <path d="M908.14 383.39 a10.87 10.87 0 1 0 21.74 0 a10.87 10.87 0 1 0 -21.74 0z" stroke="rgba(3, 94, 123, 1)"></path>
        <path d="M81.92 71.79a44.65 44.65 0 1 0-10.53 88.67z" fill="rgba(227, 126, 125, 1)"></path>
        <path d="M1335.01 405.43L1351.75 405.43L1351.75 426.65L1335.01 426.65z" fill="rgba(3, 94, 123, 1)"></path>
        <path d="M796.36 556.61L818.66 556.61L818.66 578.91L796.36 578.91z" fill="rgba(3, 94, 123, 1)"></path>
        <path d="M136.13 440.25a32 32 0 1 0 28 57.55z" stroke="rgba(227, 126, 125, 1)"></path>
        <path d="M348.8 285.22a28.09 28.09 0 1 0-26.66 49.45z" fill="rgba(3, 94, 123, 1)"></path>
        <path d="M129.89 122.25 a0.82 0.82 0 1 0 1.64 0 a0.82 0.82 0 1 0 -1.64 0z" fill="#d3b714"></path>
        <path d="M808.06 443.58L863.87 443.58L863.87 499.39L808.06 499.39z" fill="rgba(227, 126, 125, 1)"></path>
        <path d="M1370.64 246.68a50.79 50.79 0 1 0 48.68 89.16z" stroke="rgba(3, 94, 123, 1)"></path>
        <path d="M497.76 116.81a18.62 18.62 0 1 0 16.45-33.41z" stroke="rgba(3, 94, 123, 1)"></path>
        <path d="M1157.37 234.66L1203.94 234.66L1203.94 286.8L1157.37 286.8z" fill="rgba(3, 94, 123, 1)"></path>
        <path d="M873.2 530.99L877.52 530.99L877.52 535.31L873.2 535.31z" stroke="rgba(227, 126, 125, 1)"></path>
        <path d="M319.98 423.79a10.92 10.92 0 1 0 6.37 20.89z" stroke="rgba(227, 126, 125, 1)"></path>
        <path d="M854.44 519.05 a55.35 55.35 0 1 0 110.7 0 a55.35 55.35 0 1 0 -110.7 0z" stroke="#d3b714"></path>
        <path d="M1104.43 126.36a21.66 21.66 0 1 0 32.32 28.86z" fill="rgba(227, 126, 125, 1)"></path>
        <path d="M1111.87 194.08L1131.82 194.08L1131.82 214.03L1111.87 214.03z" fill="rgba(227, 126, 125, 1)"></path>
    </g>
    <defs>
        <mask id="SvgjsMask1004">
            <rect width="1440" height="560" fill="#ffffff"></rect>
        </mask>
    </defs>
</svg>