<svg xmlns="http://www.w3.org/2000/svg" version="1.1" xmlns:xlink="http://www.w3.org/1999/xlink" xmlns:svgjs="http://svgjs.com/svgjs" width="1440" height="560" preserveAspectRatio="none" viewBox="0 0 1440 560">
    <g mask="url(&quot;#SvgjsMask1020&quot;)" fill="none">
        <rect width="1440" height="560" x="0" y="0" fill="rgba(89, 76, 13, 1)"></rect>
        <path d="M1512 560L0 560 L0 341.89Q59.01 280.9, 120 339.91Q163.09 263, 240 306.09Q281.77 275.86, 312 317.63Q376.51 310.14, 384 374.66Q396.59 315.25, 456 327.85Q482.11 281.96, 528 308.07Q587.26 295.34, 600 354.6Q626.43 309.03, 672 335.46Q712.21 255.66, 792 295.87Q837.83 269.7, 864 315.53Q942.73 274.26, 984 352.99Q994.66 291.65, 1056 302.32Q1083.72 258.04, 1128 285.76Q1180.5 266.26, 1200 318.76Q1282.57 281.32, 1320 363.89Q1342.28 266.17, 1440 288.45Q1484.03 260.48, 1512 304.51z" fill="rgba(249, 242, 210, 1)"></path>
        <path d="M1464 560L0 560 L0 447.05Q19.95 395, 72 414.96Q106.7 329.66, 192 364.36Q240.08 340.44, 264 388.53Q338.35 342.88, 384 417.23Q395.21 356.44, 456 367.65Q486.54 326.19, 528 356.73Q584.55 341.28, 600 397.83Q648.89 326.72, 720 375.61Q746.22 329.83, 792 356.04Q871.87 315.91, 912 395.78Q995.79 359.57, 1032 443.36Q1078 369.37, 1152 415.37Q1179.69 323.06, 1272 350.76Q1313.47 320.24, 1344 361.71Q1418.59 316.3, 1464 390.89z" fill="rgba(179, 153, 26, 1)"></path>
        <path d="M1464 560L0 560 L0 466.76Q84.79 431.55, 120 516.34Q160.23 436.57, 240 476.79Q282.41 399.2, 360 441.6Q385.8 395.4, 432 421.2Q527.07 396.26, 552 491.33Q561.2 428.53, 624 437.73Q652.57 394.31, 696 422.88Q750.33 405.21, 768 459.54Q831.49 451.03, 840 514.52Q854.8 457.32, 912 472.12Q953.13 393.25, 1032 434.38Q1119 401.38, 1152 488.39Q1225.11 441.5, 1272 514.6Q1312.43 435.03, 1392 475.46Q1435.66 447.12, 1464 490.78z" fill="rgba(134, 115, 19, 1)"></path>
        <path d="M1464 560L0 560 L0 533.02Q52.78 513.8, 72 566.57Q79.37 501.94, 144 509.3Q195.83 441.13, 264 492.96Q368.22 477.18, 384 581.41Q431.19 508.6, 504 555.79Q570.14 501.93, 624 568.07Q637.5 509.58, 696 523.08Q772.63 479.71, 816 556.34Q843.38 463.72, 936 491.09Q978.82 461.91, 1008 504.73Q1085.61 462.34, 1128 539.94Q1158.83 498.77, 1200 529.59Q1248.85 506.44, 1272 555.3Q1306.8 470.1, 1392 504.89Q1420.89 461.78, 1464 490.68z" fill="rgba(89, 76, 13, 1)"></path>
    </g>
    <defs>
        <mask id="SvgjsMask1020">
            <rect width="1440" height="560" fill="#ffffff"></rect>
        </mask>
    </defs>
</svg>