<svg xmlns="http://www.w3.org/2000/svg" version="1.1" xmlns:xlink="http://www.w3.org/1999/xlink" xmlns:svgjs="http://svgjs.com/svgjs" width="1440" height="560" preserveAspectRatio="none" viewBox="0 0 1440 560">
    <g mask="url(&quot;#SvgjsMask1011&quot;)" fill="none">
        <rect width="1440" height="560" x="0" y="0" fill="rgba(249, 242, 210, 1)"></rect>
        <path d="M1464 560L0 560 L0 307.47Q24.63 260.11, 72 284.74Q165.8 258.54, 192 352.34Q200.66 289, 264 297.65Q292.51 254.16, 336 282.67Q419.73 246.4, 456 330.13Q499.05 253.18, 576 296.23Q617.41 265.64, 648 307.05Q707.78 294.83, 720 354.6Q749.81 264.42, 840 294.23Q916.63 250.87, 960 327.5Q984.51 280.01, 1032 304.53Q1080.91 233.44, 1152 282.36Q1234 244.37, 1272 326.37Q1291.33 273.69, 1344 293.02Q1409.87 238.89, 1464 304.76z" fill="rgba(89, 76, 13, 1)"></path>
        <path d="M1488 560L0 560 L0 392.79Q71.14 343.93, 120 415.07Q131.04 354.11, 192 365.14Q258.11 311.25, 312 377.36Q334.78 328.14, 384 350.93Q426.8 321.73, 456 364.52Q552.66 341.18, 576 437.84Q592.67 382.5, 648 399.17Q694.04 325.21, 768 371.24Q863.37 346.61, 888 441.98Q900.54 382.52, 960 395.07Q982.4 345.48, 1032 367.88Q1075.8 339.68, 1104 383.48Q1169.09 328.56, 1224 393.65Q1270.56 368.21, 1296 414.77Q1366.37 365.13, 1416 435.5Q1417.83 365.32, 1488 367.15z" fill="rgba(134, 115, 19, 1)"></path>
        <path d="M1464 560L0 560 L0 453.39Q90.75 424.14, 120 514.89Q132.05 454.94, 192 466.98Q211.5 414.49, 264 433.99Q334.78 384.77, 384 455.56Q438.37 437.93, 456 492.3Q498.25 462.56, 528 504.81Q529.48 434.28, 600 435.76Q673.28 389.04, 720 462.32Q797.98 420.3, 840 498.28Q841.84 428.12, 912 429.95Q977.47 375.42, 1032 440.89Q1109.22 398.12, 1152 475.34Q1202.05 453.39, 1224 503.44Q1257.91 417.35, 1344 451.26Q1422.18 409.44, 1464 487.63z" fill="rgba(179, 153, 26, 1)"></path>
        <path d="M1464 560L0 560 L0 518.35Q41.07 487.42, 72 528.49Q114.9 451.39, 192 494.29Q278.86 461.15, 312 548.02Q357.11 521.13, 384 566.23Q389.16 499.39, 456 504.55Q497.82 474.38, 528 516.2Q599.63 515.84, 600 587.47Q622.82 538.29, 672 561.1Q698.63 515.73, 744 542.36Q768.09 494.45, 816 518.55Q882.32 464.87, 936 531.18Q996.75 519.93, 1008 580.69Q1024.82 477.51, 1128 494.33Q1201.58 447.9, 1248 521.48Q1277.23 478.71, 1320 507.94Q1347.34 463.28, 1392 490.62Q1452.05 478.67, 1464 538.73z" fill="rgba(255, 255, 255, 1)"></path>
    </g>
    <defs>
        <mask id="SvgjsMask1011">
            <rect width="1440" height="560" fill="#ffffff"></rect>
        </mask>
    </defs>
</svg>