<svg xmlns="http://www.w3.org/2000/svg" version="1.1" xmlns:xlink="http://www.w3.org/1999/xlink" xmlns:svgjs="http://svgjs.com/svgjs" width="1440" height="560" preserveAspectRatio="none" viewBox="0 0 1440 560">
    <g mask="url(&quot;#SvgjsMask1043&quot;)" fill="none">
        <rect width="1440" height="560" x="0" y="0" fill="rgba(45, 38, 6, 1)"></rect>
        <path d="M0 0L687.94 0L0 120.92z" fill="rgba(255, 255, 255, .1)"></path>
        <path d="M0 120.92L687.94 0L984.6800000000001 0L0 237.13z" fill="rgba(255, 255, 255, .075)"></path>
        <path d="M0 237.13L984.6800000000001 0L1234.1000000000001 0L0 387.03z" fill="rgba(255, 255, 255, .05)"></path>
        <path d="M0 387.03L1234.1000000000001 0L1366.3000000000002 0L0 470.37z" fill="rgba(255, 255, 255, .025)"></path>
        <path d="M1440 560L1018.37 560L1440 285.89z" fill="rgba(0, 0, 0, .1)"></path>
        <path d="M1440 285.89L1018.37 560L679.03 560L1440 147.55999999999997z" fill="rgba(0, 0, 0, .075)"></path>
        <path d="M1440 147.55999999999995L679.03 560L455.41999999999996 560L1440 136.35999999999996z" fill="rgba(0, 0, 0, .05)"></path>
        <path d="M1440 136.35999999999996L455.41999999999996 560L235.35999999999996 560L1440 67.21999999999996z" fill="rgba(0, 0, 0, .025)"></path>
    </g>
    <defs>
        <mask id="SvgjsMask1043">
            <rect width="1440" height="560" fill="#ffffff"></rect>
        </mask>
    </defs>
</svg>