<svg xmlns="http://www.w3.org/2000/svg" version="1.1" xmlns:xlink="http://www.w3.org/1999/xlink" xmlns:svgjs="http://svgjs.com/svgjs" width="1440" height="560" preserveAspectRatio="none" viewBox="0 0 1440 560">
    <g mask="url(&quot;#SvgjsMask1003&quot;)" fill="none">
        <rect width="1440" height="560" x="0" y="0" fill="rgba(45, 38, 6, 1)"></rect>
        <path d="M1440 0L1433.78 0L1440 61.95z" fill="rgba(255, 255, 255, .1)"></path>
        <path d="M1433.78 0L1440 61.95L1440 188.38L663.1899999999999 0z" fill="rgba(255, 255, 255, .075)"></path>
        <path d="M663.1899999999999 0L1440 188.38L1440 346.71000000000004L446.50999999999993 0z" fill="rgba(255, 255, 255, .05)"></path>
        <path d="M446.51 0L1440 346.71000000000004L1440 370.32000000000005L143.87 0z" fill="rgba(255, 255, 255, .025)"></path>
        <path d="M0 560L150.96 560L0 456.05z" fill="rgba(0, 0, 0, .1)"></path>
        <path d="M0 456.05L150.96 560L265.95 560L0 273.17z" fill="rgba(0, 0, 0, .075)"></path>
        <path d="M0 273.17L265.95 560L961.3900000000001 560L0 106.55000000000001z" fill="rgba(0, 0, 0, .05)"></path>
        <path d="M0 106.55000000000001L961.3900000000001 560L998.6000000000001 560L0 39.120000000000005z" fill="rgba(0, 0, 0, .025)"></path>
    </g>
    <defs>
        <mask id="SvgjsMask1003">
            <rect width="1440" height="560" fill="#ffffff"></rect>
        </mask>
    </defs>
</svg>