<svg xmlns="http://www.w3.org/2000/svg" version="1.1" xmlns:xlink="http://www.w3.org/1999/xlink" xmlns:svgjs="http://svgjs.com/svgjs" width="1440" height="614" preserveAspectRatio="none" viewBox="0 0 1440 614">
    <g mask="url(&quot;#SvgjsMask2215&quot;)" fill="none">
        <rect width="1440" height="614" x="0" y="0" fill="rgba(249, 242, 210, 1)"></rect>
        <path d="M363.78 663.63 L275.77 614.78L375.0542120906371 583.9257879093627z" fill="#d3b714"></path>
        <rect width="135.36" height="135.36" clip-path="url(&quot;#SvgjsClipPath2216&quot;)" x="780.65" y="114.36" fill="url(#SvgjsPattern2217)" transform="rotate(236.68, 848.33, 182.04)"></rect>
        <rect width="113.6" height="113.6" clip-path="url(&quot;#SvgjsClipPath2218&quot;)" x="358.4" y="66.06" fill="url(#SvgjsPattern2219)" transform="rotate(327.66, 415.2, 122.86)"></rect>
        <path d="M1228.42 245.04a5.6 5.6 0 1 0-3.79 10.54 5.6 5.6 0 1 0 3.79-10.54zM1223.01 260.1a5.6 5.6 0 1 0-3.78 10.54 5.6 5.6 0 1 0 3.78-10.54zM1217.61 275.15a5.6 5.6 0 1 0-3.78 10.55 5.6 5.6 0 1 0 3.78-10.55zM1212.21 290.21a5.6 5.6 0 1 0-3.79 10.55 5.6 5.6 0 1 0 3.79-10.55z" stroke="#d3b714" stroke-width="1" stroke-dasharray="3, 2"></path>
        <path d="M1140.66 130.38a5.6 5.6 0 1 0 10.6-3.61 5.6 5.6 0 1 0-10.6 3.61zM1155.8 125.22a5.6 5.6 0 1 0 10.6-3.62 5.6 5.6 0 1 0-10.6 3.62zM1170.95 120.05a5.6 5.6 0 1 0 10.6-3.61 5.6 5.6 0 1 0-10.6 3.61zM1186.09 114.89a5.6 5.6 0 1 0 10.6-3.62 5.6 5.6 0 1 0-10.6 3.62z" fill="#d3b714"></path>
        <rect width="96" height="96" clip-path="url(&quot;#SvgjsClipPath2220&quot;)" x="270.77" y="-15.64" fill="url(#SvgjsPattern2221)" transform="rotate(233.59, 318.77, 32.36)"></rect>
        <rect width="237.2" height="237.2" clip-path="url(&quot;#SvgjsClipPath2222&quot;)" x="98.91" y="377.32" fill="url(#SvgjsPattern2223)" transform="rotate(321.14, 217.51, 495.92)"></rect>
        <circle r="77.8258172879672" cx="1249.19" cy="340.55" stroke="#e73635" stroke-width="1.75"></circle>
        <rect width="60" height="60" clip-path="url(&quot;#SvgjsClipPath2224&quot;)" x="510.66" y="163.73" fill="url(#SvgjsPattern2225)" transform="rotate(356.41, 540.66, 193.73)"></rect>
        <rect width="319.2" height="319.2" clip-path="url(&quot;#SvgjsClipPath2226&quot;)" x="-61.8" y="57.15" fill="url(#SvgjsPattern2227)" transform="rotate(121.51, 97.8, 216.75)"></rect>
        <rect width="400.52" height="400.52" clip-path="url(&quot;#SvgjsClipPath2228&quot;)" x="518.02" y="-16.61" fill="url(#SvgjsPattern2229)" transform="rotate(10.61, 718.28, 183.65)"></rect>
    </g>
    <defs>
        <mask id="SvgjsMask2215">
            <rect width="1440" height="614" fill="#ffffff"></rect>
        </mask>
        <pattern x="0" y="0" width="135.36" height="8.46" patternUnits="userSpaceOnUse" id="SvgjsPattern2217">
            <rect width="135.36" height="4.23" x="0" y="0" fill="#d3b714"></rect>
            <rect width="135.36" height="4.23" x="0" y="4.23" fill="rgba(0, 0, 0, 0)"></rect>
        </pattern>
        <clipPath id="SvgjsClipPath2216">
            <circle r="33.84" cx="848.33" cy="182.04"></circle>
        </clipPath>
        <pattern x="0" y="0" width="11.36" height="11.36" patternUnits="userSpaceOnUse" id="SvgjsPattern2219">
            <path d="M5.68 1L5.68 10.36M1 5.68L10.36 5.68" stroke="#e73635" fill="none" stroke-width="4.47"></path>
        </pattern>
        <clipPath id="SvgjsClipPath2218">
            <circle r="28.4" cx="415.2" cy="122.86"></circle>
        </clipPath>
        <pattern x="0" y="0" width="6" height="6" patternUnits="userSpaceOnUse" id="SvgjsPattern2221">
            <path d="M3 1L3 5M1 3L5 3" stroke="#d3b714" fill="none" stroke-width="1.34"></path>
        </pattern>
        <clipPath id="SvgjsClipPath2220">
            <circle r="24" cx="318.77" cy="32.36"></circle>
        </clipPath>
        <pattern x="0" y="0" width="11.86" height="11.86" patternUnits="userSpaceOnUse" id="SvgjsPattern2223">
            <path d="M0 11.86L5.93 0L11.86 11.86" stroke="#e73635" fill="none"></path>
        </pattern>
        <clipPath id="SvgjsClipPath2222">
            <circle r="59.3" cx="217.51" cy="495.92"></circle>
        </clipPath>
        <pattern x="0" y="0" width="6" height="6" patternUnits="userSpaceOnUse" id="SvgjsPattern2225">
            <path d="M3 1L3 5M1 3L5 3" stroke="#e73635" fill="none" stroke-width="1"></path>
        </pattern>
        <clipPath id="SvgjsClipPath2224">
            <circle r="15" cx="540.66" cy="193.73"></circle>
        </clipPath>
        <pattern x="0" y="0" width="7.6" height="7.6" patternUnits="userSpaceOnUse" id="SvgjsPattern2227">
            <path d="M0 7.6L3.8 0L7.6 7.6" stroke="#e73635" fill="none"></path>
        </pattern>
        <clipPath id="SvgjsClipPath2226">
            <circle r="79.8" cx="97.8" cy="216.75"></circle>
        </clipPath>
        <pattern x="0" y="0" width="10.54" height="10.54" patternUnits="userSpaceOnUse" id="SvgjsPattern2229">
            <path d="M5.27 1L5.27 9.54M1 5.27L9.54 5.27" stroke="#d3b714" fill="none" stroke-width="2.12"></path>
        </pattern>
        <clipPath id="SvgjsClipPath2228">
            <circle r="100.13" cx="718.28" cy="183.65"></circle>
        </clipPath>
    </defs>
</svg>