<!--?xml version="1.0" standalone="no"?-->
              <svg id="sw-js-blob-svg" viewBox="0 0 100 100" xmlns="http://www.w3.org/2000/svg" version="1.1">
                    <defs> 
                        <linearGradient id="sw-gradient" x1="0" x2="1" y1="1" y2="0">
                            <stop id="stop1" stop-color="rgba(45, 38, 6, 1)" offset="0%"></stop>
                            <stop id="stop2" stop-color="rgba(179, 153, 26, 1)" offset="100%"></stop>
                        </linearGradient>
                    </defs>
                <path fill="url(#sw-gradient)" d="M11.4,-12.9C16.4,-12.1,23,-10.9,25.7,-7.3C28.4,-3.6,27.2,2.4,25.2,8.1C23.2,13.8,20.5,19.1,16.2,19.9C11.8,20.7,5.9,16.9,-1.3,18.7C-8.5,20.4,-17,27.7,-22.9,27.5C-28.8,27.2,-32.3,19.4,-34.3,11.5C-36.4,3.6,-37.2,-4.3,-34.7,-11.1C-32.3,-18,-26.8,-23.6,-20.5,-24C-14.2,-24.3,-7.1,-19.4,-1.9,-16.8C3.2,-14.1,6.4,-13.7,11.4,-12.9Z" width="100%" height="100%" transform="translate(50 50)" stroke-width="0" style="transition: all 0.3s ease 0s;"></path>
              </svg>