<!--?xml version="1.0" standalone="no"?-->
              <svg id="sw-js-blob-svg" viewBox="0 0 100 100" xmlns="http://www.w3.org/2000/svg" version="1.1">
                    <defs> 
                        <linearGradient id="sw-gradient" x1="0" x2="1" y1="1" y2="0">
                            <stop id="stop1" stop-color="rgba(45, 38, 6, 1)" offset="0%"></stop>
                            <stop id="stop2" stop-color="rgba(179, 153, 26, 1)" offset="100%"></stop>
                        </linearGradient>
                    </defs>
                <path fill="url(#sw-gradient)" d="M25.7,-27.2C32.3,-25,36.2,-16,36.8,-7.3C37.4,1.5,34.7,10,29.4,14.8C24,19.6,16,20.7,8.4,23.6C0.9,26.6,-6.2,31.4,-9.7,29.1C-13.3,26.8,-13.4,17.3,-15.5,10.5C-17.6,3.7,-21.7,-0.4,-23,-6C-24.3,-11.5,-22.9,-18.5,-18.6,-21.1C-14.3,-23.8,-7.1,-22,1.2,-23.4C9.5,-24.8,19,-29.4,25.7,-27.2Z" width="100%" height="100%" transform="translate(50 50)" stroke-width="0" style="transition: all 0.3s ease 0s;"></path>
              </svg>