<svg xmlns="http://www.w3.org/2000/svg" height="1200" width="1600" version="1.1" xmlns:xlink="http://www.w3.org/1999/xlink" xmlns:svgjs="http://svgjs.com/svgjs"><rect fill="#f3ebe9" width="1600" height="1200"></rect><g><path d="M1235.16 518.69C1264.56 595.57 1280.01 680.07 1240.09 729.69 1200.51 778.84 1105.1 792.79 1036.47 845.05 968.64 897.19 926.33 987.42 854.95 1027.82 784.03 1068.55 683.09 1058.78 602.26 1011.24 521.77 963.23 461.03 877.93 424.58 780.45 387.79 683.43 375.42 575.04 430.22 513.55 484.56 451.72 605.95 435.98 692.02 407.55 778.08 379.12 829.16 337.53 894.89 317.76 960.62 297.99 1040.53 299.7 1101.42 335.73 1163.11 371.62 1206.11 441.35 1235.16 518.69Z" fill="#efdcd7" opacity="1" stroke-width="4" stroke="none"></path></g><g><path d="M715.94 522.56H317.92C290.97 522.56 269.18 544.35 269.18 571.31V945.26C269.18 972.21 290.97 994 317.92 994H715.94C742.89 994 764.69 972.21 764.69 945.26V571.31C764.69 544.44 742.81 522.56 715.94 522.56Z" fill="#ffffff" opacity="1" stroke-width="4" stroke="none"></path><path d="M322.12 607.89C333.19 607.89 342.16 598.92 342.16 587.85 342.16 576.78 333.19 567.81 322.12 567.81 311.06 567.81 302.08 576.78 302.08 587.85 302.08 598.92 311.06 607.89 322.12 607.89Z" fill="#e3cec9" opacity="1" stroke-width="4" stroke="none"></path><path d="M380.32 607.89C391.39 607.89 400.36 598.92 400.36 587.85 400.36 576.78 391.39 567.81 380.32 567.81 369.26 567.81 360.28 576.78 360.28 587.85 360.28 598.92 369.26 607.89 380.32 607.89Z" fill="#e3cec9" opacity="1" stroke-width="4" stroke="none"></path><path d="M438.61 607.89C449.68 607.89 458.65 598.92 458.65 587.85 458.65 576.78 449.68 567.81 438.61 567.81 427.54 567.81 418.56 576.78 418.56 587.85 418.56 598.92 427.54 607.89 438.61 607.89Z" fill="#e3cec9" opacity="1" stroke-width="4" stroke="none"></path></g><g><path d="M1299.05 237.4H901.04C874.08 237.4 852.29 259.19 852.29 286.14V660.09C852.29 687.05 874.08 708.84 901.04 708.84H1299.05C1326.01 708.84 1347.8 687.05 1347.8 660.09V286.14C1347.8 259.19 1325.92 237.4 1299.05 237.4Z" fill="#ffffff" opacity="1" stroke-width="4" stroke="none"></path><path d="M905.59 323.95C916.66 323.95 925.63 314.98 925.63 303.91 925.63 292.84 916.66 283.87 905.59 283.87 894.52 283.87 885.55 292.84 885.55 303.91 885.55 314.98 894.52 323.95 905.59 323.95Z" fill="#e3cec9" opacity="1" stroke-width="4" stroke="none"></path><path d="M963.78 323.95C974.85 323.95 983.83 314.98 983.83 303.91 983.83 292.84 974.85 283.87 963.78 283.87 952.71 283.87 943.74 292.84 943.74 303.91 943.74 314.98 952.71 323.95 963.78 323.95Z" fill="#e3cec9" opacity="1" stroke-width="4" stroke="none"></path><path d="M1022.07 323.95C1033.14 323.95 1042.11 314.98 1042.11 303.91 1042.11 292.84 1033.14 283.87 1022.07 283.87 1011 283.87 1002.03 292.84 1002.03 303.91 1002.03 314.98 1011 323.95 1022.07 323.95Z" fill="#e3cec9" opacity="1" stroke-width="4" stroke="none"></path></g><g><path d="M1152.99 808.07V849.21" stroke="#ffffff" stroke-width="4" stroke-linecap="round" stroke-linejoin="round" opacity="1" fill="none"></path><path d="M1152.99 965.99V1007.12" stroke="#ffffff" stroke-width="4" stroke-linecap="round" stroke-linejoin="round" opacity="1" fill="none"></path><path d="M1252.51 907.6H1211.38" stroke="#ffffff" stroke-width="4" stroke-linecap="round" stroke-linejoin="round" opacity="1" fill="none"></path><path d="M1094.6 907.6H1053.46" stroke="#ffffff" stroke-width="4" stroke-linecap="round" stroke-linejoin="round" opacity="1" fill="none"></path><path d="M1082.66 837.26L1111.63 866.24" stroke="#ffffff" stroke-width="4" stroke-linecap="round" stroke-linejoin="round" opacity="1" fill="none"></path><path d="M1194.35 948.96L1223.32 977.93" stroke="#ffffff" stroke-width="4" stroke-linecap="round" stroke-linejoin="round" opacity="1" fill="none"></path><path d="M1223.32 837.26L1194.35 866.24" stroke="#ffffff" stroke-width="4" stroke-linecap="round" stroke-linejoin="round" opacity="1" fill="none"></path><path d="M1111.63 948.96L1082.66 977.93" stroke="#ffffff" stroke-width="4" stroke-linecap="round" stroke-linejoin="round" opacity="1" fill="none"></path></g><g><path d="M477.41 216.49V259.84" stroke="#ffffff" stroke-width="4" stroke-linecap="round" stroke-linejoin="round" opacity="1" fill="none"></path><path d="M477.41 382.89V426.24" stroke="#ffffff" stroke-width="4" stroke-linecap="round" stroke-linejoin="round" opacity="1" fill="none"></path><path d="M582.29 321.37H538.94" stroke="#ffffff" stroke-width="4" stroke-linecap="round" stroke-linejoin="round" opacity="1" fill="none"></path><path d="M415.89 321.37H372.54" stroke="#ffffff" stroke-width="4" stroke-linecap="round" stroke-linejoin="round" opacity="1" fill="none"></path><path d="M403.3 247.26L433.83 277.79" stroke="#ffffff" stroke-width="4" stroke-linecap="round" stroke-linejoin="round" opacity="1" fill="none"></path><path d="M520.99 364.95L551.52 395.48" stroke="#ffffff" stroke-width="4" stroke-linecap="round" stroke-linejoin="round" opacity="1" fill="none"></path><path d="M551.52 247.26L520.99 277.79" stroke="#ffffff" stroke-width="4" stroke-linecap="round" stroke-linejoin="round" opacity="1" fill="none"></path><path d="M433.83 364.95L403.3 395.48" stroke="#ffffff" stroke-width="4" stroke-linecap="round" stroke-linejoin="round" opacity="1" fill="none"></path></g><g><path d="M921.25 903.08C959.68 903.08 990.84 871.93 990.84 833.5 990.84 795.07 959.68 763.91 921.25 763.91 882.82 763.91 851.66 795.07 851.66 833.5 851.66 871.93 882.82 903.08 921.25 903.08Z" fill="#ffffff" opacity="1" stroke-width="4" stroke="none"></path><path d="M950.1 812.67C943.09 805.66 931.81 805.66 924.8 812.67L921.15 816.33 917.49 812.67C910.38 805.86 899.1 806.07 892.19 813.18 885.59 820.09 885.59 830.96 892.19 837.86L895.85 841.52 918.91 864.58C920.13 865.8 922.16 865.8 923.38 864.58L946.44 841.52 950.1 837.86C957.01 830.96 957.11 819.68 950.1 812.67Z" fill="#efdcd7" opacity="1" stroke-width="4" stroke="none"></path></g><g><path d="M724.97 451.51H662.54L638.63 470.77C635.96 472.91 632.12 472.47 629.98 469.88 629.09 468.81 628.65 467.47 628.65 466.04V398.97C628.65 369.99 652.19 346.44 681.18 346.44H724.97C753.96 346.44 777.5 369.99 777.5 398.97 777.59 427.96 754.05 451.51 724.97 451.51Z" fill="#ffffff" opacity="1" stroke-width="4" stroke="none"></path><path d="M700.71 418.24L690.01 425.64C688.05 426.98 685.37 426.44 684.03 424.57 683.32 423.5 683.05 422.16 683.5 420.91L687.15 408.43C687.69 406.73 687.06 404.95 685.64 403.79L675.29 395.85C673.42 394.42 673.06 391.75 674.49 389.88 675.29 388.89 676.45 388.27 677.79 388.18L690.81 387.82C692.59 387.73 694.11 386.66 694.74 384.97L699.11 372.75C699.91 370.52 702.32 369.36 704.55 370.16 705.79 370.61 706.69 371.59 707.13 372.75L711.5 384.97C712.13 386.66 713.64 387.73 715.43 387.82L728.45 388.18C730.77 388.27 732.64 390.23 732.64 392.55 732.64 393.8 732.02 395.05 730.95 395.85L720.6 403.79C719.17 404.86 718.64 406.73 719.08 408.43L722.74 420.91C723.45 423.14 722.12 425.55 719.89 426.26 718.64 426.62 717.3 426.44 716.23 425.73L705.53 418.33C704.1 417.26 702.14 417.26 700.71 418.24Z" fill="#efdcd7" opacity="1" stroke-width="4" stroke="none"></path></g><g><path d="M928.95 504.93V504.78C925.88 500.1 924.71 496 925.88 492.34 927.34 487.52 931.88 485.03 933.2 484.3 933.2 484.3 933.34 484.15 933.2 484.15 931 479.91 931 476.4 932.32 473.32 934.8 468.5 940.66 466.89 942.12 466.59 942.12 466.59 942.27 466.59 942.27 466.45 942.56 457.38 948.12 452.69 958.51 452.69 962.6 452.69 967.72 453.43 972.26 455.03 972.41 455.03 972.41 455.03 972.41 454.89 975.04 439.67 979.57 431.48 985.43 431.48 994.64 431.04 994.94 459.86 999.91 468.35 1013.66 499.95 1010.45 518.97 1010.15 521.02 1010.15 521.02 1010.15 521.02 1010.15 521.17L1029.61 552.04C1029.76 552.33 1029.76 552.62 1029.47 552.77 1023.61 556.13 964.51 589.93 961.14 591.83 960.99 591.83 960.99 591.83 960.99 591.69 956.31 577.35 947.83 552.33 942.71 537.26 942.71 537.26 942.71 537.26 942.71 537.11 930.42 530.24 924.42 522.92 923.83 516.05 923.39 510.05 927.78 505.95 928.95 504.93Z" fill="#cf5934" opacity="1" stroke-width="4" stroke="none"></path><path d="M1247.61 362.57C1286.53 363.15 1315.65 307.7 1285.21 282.1 1266.78 267.47 1240.15 275.81 1225.37 294.1 1202.7 321.02 1212.94 362.28 1247.61 362.57Z" fill="#010005" opacity="1" stroke-width="4" stroke="none"></path><path d="M1239.42 496.59L1237.52 490.15C1238.25 478.88 1235.76 480.78 1236.49 469.81 1238.54 437.33 1240.44 409.24 1240.74 395.34 1242.05 362.13 1211.91 334.48 1177.82 336.23 1149.88 336.23 1132.32 338.72 1119.15 356.42 1107.16 372.37 1108.91 403.39 1104.96 422.99 1101.3 438.79 1098.96 456.79 1109.2 470.1 1120.03 482.83 1136.56 486.2 1149.88 483.13V496.73C1160.7 496.73 1230.35 496.73 1239.42 496.59Z" fill="#cf5934" opacity="1" stroke-width="4" stroke="none"></path><path d="M1175.19 472.45C1168.9 476.1 1156.75 480.64 1149.88 483.13" stroke="#030202" stroke-width="4" stroke-linecap="round" stroke-linejoin="round" opacity="1" fill="none"></path><path d="M1205.47 431.92L1193.92 436.45" stroke="#030202" stroke-width="4" stroke-linecap="round" stroke-linejoin="round" opacity="1" fill="none"></path><path d="M1135.39 426.8L1135.1 426.5C1133.64 425.19 1133.2 423.29 1133.78 421.38L1134.66 418.17" stroke="#030202" stroke-width="4" stroke-linecap="round" stroke-linejoin="round" opacity="1" fill="none"></path><path d="M1144.17 437.92C1140.22 442.74 1133.49 442.6 1131.44 440.99" stroke="#030202" stroke-width="4" stroke-linecap="round" stroke-linejoin="round" opacity="1" fill="none"></path><path d="M1154.27 408.07C1149.29 408.07 1149.29 415.68 1154.27 415.68 1159.24 415.68 1159.24 408.07 1154.27 408.07Z" fill="#010005" opacity="1" stroke-width="4" stroke="none"></path><path d="M1121.93 403.24C1116.96 403.24 1116.96 410.85 1121.93 410.85 1126.91 410.85 1126.91 403.24 1121.93 403.24Z" fill="#010005" opacity="1" stroke-width="4" stroke="none"></path><path d="M1293.55 752.33C1447.18 754.97 1334.67 575.45 1317.55 555.26 1288.29 514.14 1244.98 508.14 1238.83 507.56 1238.98 504.49 1239.13 499.37 1239.42 496.15H1149.88L1149.73 507.27C1149.73 507.41 1149.73 507.41 1149.59 507.41 1144.9 507.41 1093.11 510.78 1052.88 587.44 1052.73 587.88 1052.14 587.88 1052 587.44L1029.76 551.6H1029.61L960.99 590.81C983.96 662.79 1015.27 698.49 1055.36 698.2 1085.36 698.2 1111.25 666.89 1114.62 662.65L1128.08 714.59H1227.27L1225.52 743.41C1250.68 749.85 1273.95 752.19 1293.55 752.33Z" fill="#ff9edd" opacity="1" stroke-width="4" stroke="none"></path><path d="M1277.9 670.25C1273.8 659.57 1262.1 632.21 1259.02 625.19 1258.88 624.9 1258.44 625.04 1258.58 625.34 1260.05 649.77 1244.39 667.33 1240.15 671.57 1239.71 672.01 1240 672.6 1240.59 672.6 1250.54 672.6 1268.09 672.74 1276.14 672.89 1277.31 673.18 1278.34 671.72 1277.9 670.25Z" fill="#878787" opacity="0.2" stroke-width="4" stroke="none"></path><path d="M1114.62 784.96C1119.15 784.96 1135.83 771.5 1151.49 750.28 1178.85 745.9 1195.96 737.26 1197.43 736.53 1207.38 739.31 1223.76 743.26 1225.81 743.85 1225.96 743.85 1225.96 743.85 1225.96 743.7 1225.67 743.7 1230.93 671.86 1230.05 672.45 1200.06 672.74 1158.66 675.23 1132.61 685.18 1113.3 692.49 1074.97 723.22 1067.65 744.29 1066.04 748.97 1066.04 752.77 1067.8 755.84 1066.48 759.79 1066.77 763.16 1068.38 765.5 1069.85 767.55 1072.48 768.72 1075.99 768.72 1078.48 771.94 1081.7 773.55 1085.79 773.55 1095.45 773.55 1107.89 764.77 1117.69 757.75 1118.71 757.02 1121.93 754.38 1121.93 754.97 1113.59 767.4 1105.55 782.91 1114.62 784.96Z" fill="#cf5934" opacity="1" stroke-width="4" stroke="none"></path><path d="M1089.01 686.49C1098.38 680.06 1107.45 671.86 1114.47 662.79V662.65C1114.03 660.74 1103.06 615.1 1102.18 611.58 1102.18 611.44 1102.04 611.44 1101.89 611.44 1096.18 615.97 1096.18 625.92 1096.04 639.24 1096.04 653.72 1096.48 654.01 1093.55 671.42 1093.55 671.42 1089.89 682.54 1088.43 686.2 1088.57 686.49 1088.87 686.64 1089.01 686.49Z" fill="#878787" opacity="0.2" stroke-width="4" stroke="none"></path><path d="M1278.92 673.18C1260.49 672.01 1245.42 672.45 1230.35 672.45" stroke="#878787" stroke-width="4" stroke-linecap="round" stroke-linejoin="round" opacity="1" fill="none"></path><path d="M1279.07 672.89L1258.44 624.17" stroke="#878787" stroke-width="4" stroke-linecap="round" stroke-linejoin="round" opacity="1" fill="none"></path><path d="M1113.15 715.46C1098.23 725.85 1077.02 745.46 1067.8 755.84" stroke="#030202" stroke-width="4" stroke-linecap="round" stroke-linejoin="round" opacity="1" fill="none"></path><path d="M1124.71 729.36C1106.28 742.09 1082.87 761.84 1075.99 768.72" stroke="#030202" stroke-width="4" stroke-linecap="round" stroke-linejoin="round" opacity="1" fill="none"></path><path d="M1136.27 743.12L1122.23 754.53" stroke="#030202" stroke-width="4" stroke-linecap="round" stroke-linejoin="round" opacity="1" fill="none"></path><path d="M1354.12 617.29C1354.12 617.29 1354.27 617.44 1354.27 617.29 1412.5 595.2 1414.84 511.8 1364.51 486.05 1352.08 479.47 1340.37 478.01 1338.03 477.86 1337.88 477.86 1337.88 477.71 1337.88 477.71 1341.4 427.24 1291.07 399.58 1244.25 424.6 1244.1 424.6 1243.95 424.6 1244.1 424.46 1245.12 409.09 1245.86 396.8 1246 387.73 1247.47 356.86 1220.4 329.79 1189.53 328.77 1155.88 327.6 1128.66 337.7 1115.79 362.13V362.28C1116.81 363.3 1127.49 373.39 1166.26 360.67 1166.41 360.67 1166.56 360.81 1166.41 360.81 1154.71 379.83 1170.51 390.37 1193.19 386.86 1193.33 386.86 1193.33 387 1193.33 387 1189.82 395.34 1188.06 403.24 1190.26 414.07V414.36L1190.55 414.21C1193.62 412.75 1222.15 403.83 1227.13 420.94 1232.54 437.77 1203.13 455.47 1201.82 456.5 1201.82 456.5 1201.82 456.5 1201.82 456.64 1201.52 458.99 1194.21 536.67 1275.56 552.18 1275.7 552.18 1275.85 552.18 1276 552.18 1284.63 553.65 1293.26 554.52 1302.04 554.67 1306.43 555.26 1312.43 553.5 1316.23 555.11 1333.64 576.32 1352.95 614.95 1354.12 617.29Z" fill="#010005" opacity="1" stroke-width="4" stroke="none"></path><path d="M1114.62 662.79L1102.18 611.58" stroke="#878787" stroke-width="4" stroke-linecap="round" stroke-linejoin="round" opacity="1" fill="none"></path><path d="M1052.44 588.32L1042.63 572.23" stroke="#878787" stroke-width="4" stroke-linecap="round" stroke-linejoin="round" opacity="1" fill="none"></path><path d="M1149.73 507.41C1149.73 507.41 1141.25 507.41 1131.74 510.92" stroke="#878787" stroke-width="4" stroke-linecap="round" stroke-linejoin="round" opacity="1" fill="none"></path><path d="M1174.9 472.59C1163.34 478.74 1152.66 482.1 1150.32 482.83 1150.02 482.98 1149.88 483.13 1149.88 483.42L1149.73 506.83C1149.73 507.41 1150.46 507.71 1150.9 507.27L1175.77 473.62C1176.21 472.88 1175.63 472.15 1174.9 472.59Z" fill="#030202" opacity="0.2" stroke-width="4" stroke="none"></path><path d="M945.92 522.78C951.92 522.19 960.7 518.83 956.17 508.29 961.14 509.17 970.5 509.75 974.45 504.34 976.8 501.27 976.94 496.59 975.19 490.73 976.65 490.44 982.5 488.98 984.4 484.3 985.87 480.93 984.7 476.54 981.04 471.57 985.87 466.3 984.99 457.96 972.55 455.03" stroke="#030202" stroke-width="4" stroke-linecap="round" stroke-linejoin="round" opacity="1" fill="none"></path><path d="M942.56 466.45C955.43 466.45 968.46 467.32 980.75 471.27" stroke="#030202" stroke-width="4" stroke-linecap="round" stroke-linejoin="round" opacity="1" fill="none"></path><path d="M933.34 484.15C959.53 483.71 974.89 490.3 974.89 490.3" stroke="#000000" stroke-width="4" stroke-linecap="round" stroke-linejoin="round" opacity="1" fill="none"></path><path d="M928.95 504.78C942.56 503.02 956.17 508.29 956.17 508.29" stroke="#030202" stroke-width="4" stroke-linecap="round" stroke-linejoin="round" opacity="1" fill="none"></path></g><g><path d="M473.29 763.13L473.44 754.65C477.61 755.84 481.17 755.99 485.34 755.99 499.17 755.99 510.76 750.04 517.31 739.64 525.63 726.25 522.07 711.09 518.5 696.37 518.2 695.03 517.9 693.69 517.6 692.35 516.41 685.81 515.52 679.27 515.08 672.72 513.59 656.22 511.66 635.7 503.03 623.95 489.5 605.81 472.4 618.15 443.7 618.15 441.47 618.15 432.11 616.37 429.88 616.52 396.87 618.3 379.32 626.63 380.36 658.3 380.96 677.33 374.26 704.1 377.24 750.94L378.43 765.36 417.39 778.89 473.29 763.13Z" fill="#f9b298" opacity="1" stroke-width="4" stroke="none"></path><path d="M417.83 727.74L418.13 727.44 417.83 727.29C417.53 727.15 386.01 708.26 391.81 690.86 394.19 683.58 400.29 680.01 409.8 680.01 416.49 680.31 422.44 681.05 429.43 683.88L429.73 684.02 429.88 683.13C431.96 672.87 430.32 665.88 427.35 658.15 426.9 657.11 427.79 655.92 428.98 656.07 431.21 656.22 433.44 656.37 435.67 656.52 449.35 656.52 454.71 651.46 456.79 647.3 459.02 642.99 458.57 637.48 455.9 632.13 455.3 630.94 456.49 629.45 457.83 629.9 469.58 633.47 479.84 635.4 488.31 635.4 502.14 635.4 506.75 630.64 506.75 630.64 505.86 628.56 504.22 625.89 502.88 624.1 489.35 605.96 466.01 596 437.31 596 435.08 596 432.85 596 430.62 596.15 397.61 597.93 371.44 624.99 372.48 656.67 372.78 674.06 374.71 706.03 377.39 750.79 377.39 750.64 401.33 745.44 417.83 727.74Z" fill="#000000" opacity="1" stroke-width="4" stroke="none"></path><path d="M473.44 754.65C466.45 752.13 457.38 748.11 450.99 744.25" stroke="#000000" stroke-width="4" stroke-linecap="round" stroke-linejoin="round" opacity="1" fill="none"></path><path d="M426.01 706.33L414.26 701.57" stroke="#000000" stroke-width="4" stroke-linecap="round" stroke-linejoin="round" opacity="1" fill="none"></path><path d="M487.12 687.44L488.01 690.72C488.61 692.65 488.01 694.58 486.53 695.92L486.23 696.22" stroke="#000000" stroke-width="4" stroke-linecap="round" stroke-linejoin="round" opacity="1" fill="none"></path><path d="M490.39 710.94C488.31 712.43 481.32 712.72 477.16 707.67" stroke="#000000" stroke-width="4" stroke-linecap="round" stroke-linejoin="round" opacity="1" fill="none"></path><path d="M466.9 684.92C464.76 684.92 463.03 683.19 463.03 681.05 463.03 678.92 464.76 677.18 466.9 677.18 469.04 677.18 470.77 678.92 470.77 681.05 470.77 683.19 469.04 684.92 466.9 684.92Z" fill="#000000" opacity="1" stroke-width="4" stroke="none"></path><path d="M500.06 680.01C497.92 680.01 496.19 678.29 496.19 676.14 496.19 674.02 497.92 672.28 500.06 672.28 502.2 672.28 503.92 674.02 503.92 676.14 503.92 678.29 502.2 680.01 500.06 680.01Z" fill="#000000" opacity="1" stroke-width="4" stroke="none"></path><path d="M707.49 849.82C709.86 843.28 711.35 839.86 713.28 834.95 716.41 827.51 720.57 817.4 731.28 788.85 736.18 779.04 740.79 770.56 744.96 763.13 753.43 747.81 758.49 738.6 755.66 735.62 754.92 734.88 754.03 734.43 752.84 734.43 748.67 734.43 746.44 736.81 736.18 747.52 734.7 749.15 730.38 753.61 727.71 756.29 727.41 756.59 726.96 756.29 727.11 755.84 728.75 752.27 731.72 746.03 733.06 743.2 738.86 731.01 744.21 720.01 740.35 711.98 739.31 709.9 737.37 708.41 735.14 707.96 734.99 701.27 731.87 697.26 726.67 697.26 724.29 697.41 722.06 698 719.98 699.04 718.19 697.85 716.11 697.26 714.03 697.26 701.69 697.26 688.9 718.08 677.6 736.36 672.25 744.99 667.34 753.17 663.17 757.33 662.73 736.51 658.71 724.17 652.47 724.17 651.73 724.17 651.13 724.32 650.54 724.62 645.78 726.4 643.25 739.04 640.42 753.76 639.83 756.88 639.09 760.16 638.49 763.43 637.3 769.23 636.26 774.28 635.37 778.74 632.4 792.27 630.46 801.34 631.95 813.54 627.19 825.58 622.58 838.07 618.42 848.93L617.67 851.01 707.49 849.82Z" fill="#f9b298" opacity="1" stroke-width="4" stroke="none"></path><path d="M663.17 757.33V771.61C663.17 771.61 678.49 787.22 675.81 809.22" stroke="#000000" stroke-width="4" stroke-linecap="round" stroke-linejoin="round" opacity="1" fill="none"></path><path d="M718.93 699.34C702.88 720.9 689.64 747.81 689.64 747.81" stroke="#000000" stroke-width="4" stroke-linecap="round" stroke-linejoin="round" opacity="1" fill="none"></path><path d="M734.99 707.96C727.86 716.89 705.7 756.44 705.7 756.44" stroke="#000000" stroke-width="4" stroke-linecap="round" stroke-linejoin="round" opacity="1" fill="none"></path><path d="M727.26 756.29L720.87 766.4" stroke="#000000" stroke-width="4" stroke-linecap="round" stroke-linejoin="round" opacity="1" fill="none"></path><path d="M472.7 765.06V754.36L469.87 753.61C462.29 751.38 457.23 749.15 449.95 745.88L449.5 746.77 458.72 771.46 472.7 765.06Z" fill="#000000" opacity="0.3" stroke-width="4" stroke="none"></path><path d="M323.71 1023.49C343.93 1023.49 367.13 1020.81 393.3 1014.87L394.19 1013.53 392.11 984.68H494.26L511.36 921.64C514.48 926.39 538.27 960 578.12 974.72 588.53 978.88 599.68 980.97 610.84 981.26 665.7 981.26 690.53 915.09 709.27 845.21L628.68 822.46 606.52 875.69C604.59 873.01 592.99 857.25 572.62 831.68 534.26 780.38 477.9 775.32 473.29 775.03V763.13H378.13L378.73 772.2C346.76 776.96 318.21 794.5 299.32 820.67 298.58 821.71 219.47 927.58 248.32 991.67 257.09 1011.89 284.75 1023.49 323.71 1023.49Z" fill="#ff9edd" opacity="1" stroke-width="4" stroke="none"></path><path d="M511.36 921.64L517.01 897.25" stroke="#969696" stroke-width="4" stroke-linecap="round" stroke-linejoin="round" opacity="1" fill="none"></path><path d="M528.76 941.71C528.76 941.56 524.74 929.67 524.74 906.17 524.74 892.49 524.74 883.57 519.98 883.57H519.69L510.62 921.04V921.19C515.67 928.63 521.62 935.61 528.01 942.01L528.76 941.71Z" fill="#969696" opacity="0.3" stroke-width="4" stroke="none"></path><path d="M357.02 907.21L343.19 941.71" stroke="#969696" stroke-width="4" stroke-linecap="round" stroke-linejoin="round" opacity="1" fill="none"></path><path d="M507.79 1057.1C507.94 1057.1 507.94 1057.1 508.09 1057.1 509.43 1056.95 510.76 1056.06 511.21 1054.72 513.14 1049.96 508.68 1038.81 499.76 1026.02 501.4 1027.06 503.03 1028.25 504.67 1029.44 514.78 1036.58 527.42 1045.5 537.23 1045.5 541.25 1045.65 544.96 1043.71 547.34 1040.59 550.91 1040.59 553.59 1039.4 555.22 1037.32 557.01 1034.94 557.16 1031.37 555.82 1027.36 557.6 1024.23 557.6 1020.22 555.97 1015.46 552.7 1005.95 542.29 993.01 527.57 980.07 514.04 968.33 499.46 958.51 489.2 954.65 462.44 944.54 419.91 941.86 388.98 941.56H388.69L393.3 1014.87C393.3 1014.87 411.73 1010.55 422.74 1007.58 424.23 1008.32 441.92 1017.25 470.02 1021.71 485.93 1043.27 503.03 1057.1 507.79 1057.1Z" fill="#f9b298" opacity="1" stroke-width="4" stroke="none"></path><path d="M367.28 942.16L367.13 941.71C362.22 930.41 369.51 923.27 369.36 912.42 369.21 900.22 367.42 897.25 360.88 896.21L343.19 941.71 367.28 942.16Z" fill="#969696" opacity="0.3" stroke-width="4" stroke="none"></path><path d="M555.52 1026.02C546 1015.31 524.74 996.43 509.28 985.72" stroke="#000000" stroke-width="4" stroke-linecap="round" stroke-linejoin="round" opacity="1" fill="none"></path><path d="M547.19 1040.14C540.06 1033.01 516.41 1012.93 497.38 999.85" stroke="#000000" stroke-width="4" stroke-linecap="round" stroke-linejoin="round" opacity="1" fill="none"></path><path d="M499.17 1025.13L485.49 1014.12" stroke="#000000" stroke-width="4" stroke-linecap="round" stroke-linejoin="round" opacity="1" fill="none"></path><path d="M606.23 876.43L607.71 894.28" stroke="#969696" stroke-width="4" stroke-linecap="round" stroke-linejoin="round" opacity="1" fill="none"></path><path d="M389.28 941.56C373.82 941.56 346.76 941.71 327.72 942.9" stroke="#969696" stroke-width="4" stroke-linecap="round" stroke-linejoin="round" opacity="1" fill="none"></path></g><g><path d="M1249.04 255.51L1167.21 328.32 1244.58 364.9 1249.04 255.51Z" fill="#ffc930" opacity="1" stroke-width="4" stroke="none"></path><path d="M1256.48 257.79C1266.38 257.79 1274.42 249.75 1274.42 239.85 1274.42 229.94 1266.38 221.91 1256.48 221.91 1246.56 221.91 1238.54 229.94 1238.54 239.85 1238.54 249.75 1246.56 257.79 1256.48 257.79Z" fill="#fe4f32" opacity="1" stroke-width="4" stroke="none"></path></g><g><path d="M342.56 543.17L372.31 648.54 439 594.98 342.56 543.17Z" fill="#ffc930" opacity="1" stroke-width="4" stroke="none"></path><path d="M331.7 547.55C341.61 547.55 349.64 539.51 349.64 529.61 349.64 519.7 341.61 511.67 331.7 511.67 321.8 511.67 313.76 519.7 313.76 529.61 313.76 539.51 321.8 547.55 331.7 547.55Z" fill="#fe4f32" opacity="1" stroke-width="4" stroke="none"></path></g><g><path d="M772.76 781.68H708.32L690.6 711.87H790.48L772.76 781.68Z" fill="#fe4f32" opacity="1" stroke-width="4" stroke="none"></path><path d="M772.76 781.68H755.57L766.45 711.87H790.48L772.76 781.68Z" fill="#843f2f" opacity="0.3" stroke-width="4" stroke="none"></path><path d="M792.22 680.05H781.08C777.46 657.64 756.24 642.47 733.83 646.09 716.37 648.91 702.68 662.6 699.86 680.05H688.72C679.99 680.05 672.74 687.17 672.74 696.03 672.74 704.76 679.86 712 688.72 712H792.22C800.95 712 808.2 704.89 808.2 696.03 808.2 687.17 801.08 680.05 792.22 680.05Z" fill="#ffc930" opacity="1" stroke-width="4" stroke="none"></path><path d="M792.22 680.05H781.08C777.99 661.39 762.96 647.84 745.1 645.82 754.5 655.22 760.41 668.24 760.41 682.6 760.41 693.48 757.05 703.55 751.28 711.87H792.22C800.95 711.87 808.2 704.76 808.2 695.9 808.2 687.17 801.08 680.05 792.22 680.05Z" fill="#6f5712" opacity="0.3" stroke-width="4" stroke="none"></path><path d="M699.46 678.71H728.59" stroke="#6f5712" stroke-width="4" stroke-linecap="round" stroke-linejoin="round" opacity="1" fill="none"></path><path d="M721.47 712.27L729.53 780.34" stroke="#280f0a" stroke-width="4" stroke-linecap="round" stroke-linejoin="round" opacity="1" fill="none"></path><path d="M757.86 712.27L749.8 780.34" stroke="#280f0a" stroke-width="4" stroke-linecap="round" stroke-linejoin="round" opacity="1" fill="none"></path><path d="M739.6 656.83C749.09 656.83 756.78 649.14 756.78 639.65 756.78 630.15 749.09 622.46 739.6 622.46 730.11 622.46 722.41 630.15 722.41 639.65 722.41 649.14 730.11 656.83 739.6 656.83Z" fill="#fe4f32" opacity="1" stroke-width="4" stroke="none"></path></g></svg>