<svg class="hamburger switch" width="33" height="12" viewBox="0 0 139 50" xmlns="http://www.w3.org/2000/svg" xml:space="preserve" style="fill-rule:evenodd;clip-rule:evenodd;stroke-linejoin:round;stroke-miterlimit:2">
    <path fill="#f9f2d2" d="M120.773 8.333A8.337 8.337 0 0 0 112.44 0H8.333A8.337 8.337 0 0 0 0 8.333c0 4.6 3.734 8.334 8.333 8.334H112.44c4.599 0 8.333-3.734 8.333-8.334ZM138.889 41.667c0-4.6-3.734-8.334-8.333-8.334H26.449c-4.599 0-8.333 3.734-8.333 8.334A8.337 8.337 0 0 0 26.449 50h104.107a8.337 8.337 0 0 0 8.333-8.333Z"></path>
</svg>