<svg class="switch" width="20" viewBox="0 0 91 91" xmlns="http://www.w3.org/2000/svg" xml:space="preserve" fill-rule="evenodd" clip-rule="evenodd" stroke-linejoin="round" stroke-miterlimit="2">
<g fill="#f9f2d2">
<path fill="#f9f2d2" d="M87.839 2.439a8.339 8.339 0 0 0-11.786 0L2.439 76.053a8.339 8.339 0 0 0 0 11.786 8.337 8.337 0 0 0 11.785 0l73.615-73.615a8.337 8.337 0 0 0 0-11.785Z"></path>
<path fill="#f9f2d2" d="M87.839 87.839a8.339 8.339 0 0 0 0-11.786L14.224 2.439a8.337 8.337 0 0 0-11.785 0 8.337 8.337 0 0 0 0 11.785l73.614 73.615a8.339 8.339 0 0 0 11.786 0Z"></path>
</g>
</svg>